<svg xmlns="http://www.w3.org/2000/svg" version="1.1" xmlns:xlink="http://www.w3.org/1999/xlink" xmlns:svgjs="http://svgjs.dev/svgjs" viewBox="0 0 800 800"><g transform="matrix(1,0,0,1,61,0)"><polygon points="684,634 634,734 734,734" stroke-width="4" stroke="#000000" fill="none" opacity="0.1" transform="matrix(-0.1736481776669303,0.984807753012208,-0.984807753012208,-0.1736481776669303,871.2608342957529,84.92535528322435)"></polygon><polygon points="613,494.5 494.5,731.5 731.5,731.5" stroke-width="11.375" stroke="#808080" fill="none" opacity="0.325" transform="matrix(-0.4999999999999998,0.8485650190385648,-0.8660254037844387,-0.5302422734995539,953.3383647440509,294.8315679906717)"></polygon><polygon points="542,355 355,729 729,729" stroke-width="18.75" stroke="#b4b4b4" fill="none" opacity="0.55" transform="matrix(-0.7660444431189779,0.5892205639721876,-0.6427876096865395,-0.8109925314211471,968.6751219996993,516.8262915548817)"></polygon><polygon points="471,215.5 215.5,726.5 726.5,726.5" stroke-width="26.125" stroke="#dddddd" fill="none" opacity="0.775" transform="matrix(-0.9396926207859083,0.24325446903316666,-0.3420201433256689,-0.9756403863956098,915.4212667912362,718.0365621443209)"></polygon><polygon points="400,76 76,724 724,724" stroke-width="33.5" stroke="#ffffff" fill="none" opacity="1" transform="matrix(-1,-0.14054083470239134,-1.2246467991473532e-16,-1,800,872.2163338809567)"></polygon></g></svg>